How to Train Your Dragon (2010) 1080P MKV 3D

ONE FILE IS FULL HD MKV 3D for the quality and ONE extra small only 2,7gb hd ready mkv 3D !!


Plot:
A hapless young Viking who aspires to hunt dragons becomes the unlikely friend 
of a young dragon himself, and learns there may be more 
to the creatures than he assumed. 

This is a bluray 3D rip,not anaglyph.The original source is a bluray 3D.

INFO:

SMALL FILE:
Format                           : Matroska
File size                        : 2.70 GiB
Duration                         : 1h 37mn
Overall bit rate                 : 3 952 Kbps
Movie name                       : HOW_TO_TRAIN_YOUR_DRAGON
Writing library                  : libebml v0.7.8 + libmatroska v0.8.1

Video
ID                               : 1
Format                           : AVC
Format/Info                      : Advanced Video Codec
Format profile                   : High@L5.1
Format settings, CABAC           : Yes
Format settings, ReFrames        : 2 frames
Codec ID                         : V_MPEG4/ISO/AVC
Duration                         : 1h 37mn
Bit rate                         : 3 234 Kbps
Width                            : 1 280 pixels
Height                           : 544 pixels
Display aspect ratio             : 2.35:1
Frame rate                       : 23.976 fps
Color space                      : YUV
Chroma subsampling               : 4:2:0
Bit depth                        : 8 bits
Scan type                        : Progressive
Bits/(Pixel*Frame)               : 0.194
Stream size                      : 2.21 GiB (82%)
Writing library                  : x264 core
Color primaries                  : BT.709-5, BT.1361, IEC 61966-2-4, SMPTE RP177
Transfer characteristics         : BT.709-5, BT.1361
Matrix coefficients              : BT.709-5, BT.1361, IEC 61966-2-4 709, SMPTE RP177

Audio
ID                               : 2
Format                           : AC-3
Format/Info                      : Audio Coding 3
Mode extension                   : CM (complete main)
Codec ID                         : A_AC3
Duration                         : 1h 37mn
Bit rate mode                    : Constant
Bit rate                         : 640 Kbps
Channel(s)                       : 6 channels
Channel positions                : Front: L C R, Side: L R, LFE
Sampling rate                    : 48.0 KHz
Bit depth                        : 16 bits
Compression mode                 : Lossy
Stream size                      : 448 MiB (16%)

BIG FILE
Format                           : Matroska
File size                        : 12.6 GiB
Duration                         : 1h 37mn
Overall bit rate                 : 18.5 Mbps
Movie name                       : HOW_TO_TRAIN_YOUR_DRAGON
Writing library                  : libebml v0.7.8 + libmatroska v0.8.1

Video
ID                               : 1
Format                           : AVC
Format/Info                      : Advanced Video Codec
Format profile                   : High@L5.1
Format settings, CABAC           : Yes
Format settings, ReFrames        : 2 frames
Codec ID                         : V_MPEG4/ISO/AVC
Duration                         : 1h 37mn
Width                            : 1 920 pixels
Height                           : 1 080 pixels
Display aspect ratio             : 16:9
Frame rate                       : 23.976 fps
Color space                      : YUV
Chroma subsampling               : 4:2:0
Bit depth                        : 8 bits
Scan type                        : Progressive
Writing library                  : x264 core
Color primaries                  : BT.709-5, BT.1361, IEC 61966-2-4, SMPTE RP177
Transfer characteristics         : BT.709-5, BT.1361
Matrix coefficients              : BT.709-5, BT.1361, IEC 61966-2-4 709, SMPTE RP177


MP4 Audio
ID                               : 2
Format                           : TrueHD
Codec ID                         : A_TRUEHD
Duration                         : 1h 37mn
Bit rate mode                    : Variable
Maximum bit rate                 : 5 049 Kbps
Channel(s)                       : 8 channels
Channel positions                : Front: L C R, Side: L R, Back: L R, LFE
Sampling rate                    : 48.0 KHz
Compression mode                 : Lossless
Language                         : English

+This folder cortains mp4 audio stream 448kbps,5.1 channels,english:


                  !!YOU NEED 3D EQUIPMENT TO WATCH THIS!!

                                    (LiG)	